<svg width="77" height="32" viewBox="0 0 77 32" fill="none" xmlns="http://www.w3.org/2000/svg">
<path d="M34.1731 1.72266C28.8882 1.72266 22.3919 2.40683 17.1636 3.08155C14.7804 3.3891 12.3154 3.36135 9.99489 4.05294C7.87216 4.68559 6.18261 6.52432 4.61837 7.9385C2.61084 9.75342 1.03402 12.4598 1.03402 15.1545C1.03402 16.2973 0.835144 17.5604 1.39909 18.6084C3.19224 21.9407 7.43814 24.4545 10.9573 25.9786C20.8468 30.2616 31.2791 31.4887 42.1047 30.8355C47.5294 30.5082 52.8161 29.1368 58.0849 27.9214C62.979 26.7923 68.1289 25.6428 72.1236 22.6481C74.3102 21.0088 76.1526 18.9839 75.99 16.2647C75.7587 12.3962 71.2731 9.84094 67.9086 8.38564C62.0037 5.83148 55.1466 4.79625 48.7921 3.7754C41.8347 2.65768 34.9196 1.76553 27.9166 1" stroke="#EE2E39" stroke-width="2" stroke-linecap="round"/>
</svg>
