<svg width="17" height="17" viewBox="0 0 17 17" fill="none" xmlns="http://www.w3.org/2000/svg">
<path d="M6.37126 0.171875C7.45051 0.251384 8.17617 0.369406 8.54824 0.52594C8.98363 0.70732 9.20133 1.04896 9.20133 1.55086C9.32271 2.84786 9.10501 4.06659 8.54824 5.20705C8.40838 5.57975 8.18145 5.78101 7.86744 5.81082C7.20775 5.8307 6.3871 5.73752 5.40548 5.5313L5.37381 5.59093C5.40548 6.07792 5.46881 6.32142 5.5638 6.32142H5.59151C5.67595 6.32142 5.8633 6.30279 6.15357 6.26552C6.56785 6.26552 6.77499 6.46056 6.77499 6.85065C6.67208 7.28796 6.49528 7.61966 6.2446 7.84576C6.07572 8.01472 5.88969 8.12156 5.68651 8.16628C5.73664 9.3465 5.59151 10.4199 5.25111 11.3864C5.11653 11.7392 4.86717 12.0809 4.50302 12.4113C4.05444 12.7095 3.5887 12.876 3.1058 12.9108C2.6968 12.9108 2.34452 12.5766 2.04898 11.9082C1.53179 10.8969 1.14785 9.73783 0.897166 8.4309C0.688705 7.35256 0.543573 6.09283 0.461772 4.65173C0.422191 3.48145 0.546212 2.49628 0.833836 1.69622C1.08716 1.35582 1.95795 0.98436 3.4462 0.581845C4.22464 0.333378 5.19966 0.196722 6.37126 0.171875Z" fill="#EE2E39"/>
<path d="M12.4153 5.46421C13.2413 5.46421 13.8904 5.59093 14.3627 5.84437C14.7216 6.1301 14.901 6.4618 14.901 6.83947C14.901 7.34883 14.6424 7.89421 14.1252 8.47563C13.8957 8.62967 13.5012 8.58122 12.9418 8.33027C11.91 8.15883 11.1131 8.37375 10.551 8.97504C10.4165 9.3378 10.5616 9.48316 10.9864 9.4111C11.3453 9.4111 11.9047 9.32414 12.6647 9.15021C13.8469 8.98125 14.7585 9.04958 15.3998 9.3552C16.1333 9.88195 16.4843 10.5354 16.4526 11.3156C16.4394 11.8672 16.2587 12.4548 15.9104 13.0785C15.5673 13.553 15.19 13.9605 14.7783 14.3009C13.9762 14.9171 12.5565 15.4923 10.5194 16.0265C9.97052 16.1234 9.53513 16.1719 9.2132 16.1719C8.40046 16.1719 7.76453 16.065 7.30538 15.8514C6.7961 15.5855 6.54146 15.214 6.54146 14.737C6.54146 14.2525 6.58896 13.8338 6.68396 13.481C6.73673 13.158 6.89637 12.7679 7.16289 12.3107C7.40829 12.0175 7.61544 11.8709 7.78432 11.8709C7.96111 11.8361 8.66566 11.933 9.89796 12.1616C10.7846 12.2461 11.6343 12.1492 12.447 11.8709C13.4233 11.4386 13.8996 11.1069 13.8759 10.8758C13.8759 10.6721 13.6582 10.6037 13.2228 10.6708C12.7346 10.7305 11.8955 10.9255 10.7054 11.256C10.2859 11.3529 9.87157 11.4013 9.46256 11.4013C8.84509 11.4386 8.37276 11.2572 8.04555 10.8572C7.77112 10.3876 7.62203 9.83846 7.59828 9.20984C7.59828 7.93024 8.1986 6.95377 9.39923 6.28042C9.60242 6.08414 10.1315 5.87045 10.9864 5.63938C11.5432 5.5226 12.0195 5.46421 12.4153 5.46421Z" fill="#EE2E39"/>
</svg>
