<svg width="199" height="338" viewBox="0 0 199 338" fill="none" xmlns="http://www.w3.org/2000/svg">
<g clip-path="url(#clip0_200_206)">
<path fill-rule="evenodd" clip-rule="evenodd" d="M180.9 24.56L162.51 114.08C158.25 134.79 144.66 165.38 132.14 182.41L46.66 298.73C46.66 298.73 46.58 298.65 46.54 298.62L33.53 288.49C33.36 288.36 33.16 288.25 32.96 288.18L116.56 172.3C128.24 156.11 140.98 127.15 145.01 107.59L162.81 21.37L180.9 24.56V24.56Z" fill="#FCF0F4" stroke="#222529" stroke-width="4" stroke-miterlimit="2.95"/>
<path fill-rule="evenodd" clip-rule="evenodd" d="M51.8499 321.07C51.8499 321.07 49.9099 323.98 48.3999 323.43C46.8899 322.88 36.9599 314.99 36.9599 314.99L23.0799 334.39C22.3699 335.39 21.0199 335.57 20.0699 334.81L2.76992 320.97C1.81992 320.21 1.73992 318.86 2.56992 317.98L30.2599 288.74C30.9499 288.01 32.0599 287.81 32.9599 288.18C33.1599 288.25 33.3599 288.36 33.5299 288.49L46.5399 298.62C46.5399 298.62 46.6199 298.69 46.6599 298.73C47.5099 299.5 47.6399 300.8 46.8999 301.72L42.4399 307.29L51.7499 317.69C52.5599 318.61 52.6199 320.13 51.8499 321.07Z" fill="#FCF0F4" stroke="#222529" stroke-width="4" stroke-miterlimit="2.95"/>
<path fill-rule="evenodd" clip-rule="evenodd" d="M196.25 16.04L195.61 19.67C194.9 23.68 191.08 26.36 187.06 25.65L180.9 24.56L162.81 21.37L156.56 20.27C152.55 19.56 149.87 15.74 150.58 11.73L151.22 8.10001C151.93 4.08001 155.75 1.41001 159.76 2.11001L190.27 7.49001C194.28 8.20001 196.96 12.02 196.25 16.04V16.04Z" fill="#FCF0F4" stroke="#222529" stroke-width="4" stroke-miterlimit="2.95"/>
</g>
<defs>
<clipPath id="clip0_200_206">
<rect width="198.37" height="337.28" fill="white"/>
</clipPath>
</defs>
</svg>
