<?xml version="1.0" encoding="utf-8"?>
<!-- Generator: Adobe Illustrator 27.0.0, SVG Export Plug-In . SVG Version: 6.00 Build 0)  -->
<svg version="1.1" id="Lager_1" xmlns="http://www.w3.org/2000/svg" xmlns:xlink="http://www.w3.org/1999/xlink" x="0px" y="0px"
	 viewBox="0 0 400 400" style="enable-background:new 0 0 400 400;" xml:space="preserve">
<style type="text/css">
	.st0{fill:none;filter:url(#Adobe_OpacityMaskFilter);stroke:#EE2E39;stroke-width:4;}
	.st1{fill:none;stroke:#EE2E39;stroke-width:4;}
	.st2{mask:url(#mask0_175_144_00000139993035464505484990000018294622176005540262_);}
	.st3{fill:#EE2E39;}
	.st4{fill:#EE2E39;fill-opacity:0.25;stroke:#222529;stroke-width:4;}
	.st5{fill:#FCF0F4;stroke:#222529;stroke-width:4;}
</style>
<defs>
	<filter id="Adobe_OpacityMaskFilter" filterUnits="userSpaceOnUse" x="0" y="0" width="400" height="400">
		<feColorMatrix  type="matrix" values="1 0 0 0 0  0 1 0 0 0  0 0 1 0 0  0 0 0 1 0"/>
	</filter>
</defs>
<mask maskUnits="userSpaceOnUse" x="0" y="0" width="400" height="400" id="mask0_175_144_00000139993035464505484990000018294622176005540262_">
	<path class="st0" d="M-300,412.3L124.3-12"/>
	<path class="st1" d="M-268,412.3L156.3-12"/>
	<path class="st1" d="M-236,412.3L188.3-12"/>
	<path class="st1" d="M-204,412.3L220.3-12"/>
	<path class="st1" d="M-172,412.3L252.3-12"/>
	<path class="st1" d="M-140,412.3L284.3-12"/>
	<path class="st1" d="M-108,412.3L316.3-12"/>
	<path class="st1" d="M-76,412.3L348.3-12"/>
	<path class="st1" d="M-44,412.3L380.3-12"/>
	<path class="st1" d="M-12,412.3L412.3-12"/>
	<path class="st1" d="M20,412.3L444.3-12"/>
	<path class="st1" d="M52,412.3L476.3-12"/>
	<path class="st1" d="M84,412.3L508.3-12"/>
	<path class="st1" d="M116,412.3L540.3-12"/>
	<path class="st1" d="M148,412.3L572.3-12"/>
	<path class="st1" d="M180,412.3L604.3-12"/>
	<path class="st1" d="M212,412.3L636.3-12"/>
	<path class="st1" d="M244,412.3L668.3-12"/>
	<path class="st1" d="M276,412.3L700.3-12"/>
</mask>
<g class="st2">
	<circle class="st3" cx="200" cy="200" r="200"/>
</g>
<circle class="st4" cx="200" cy="200" r="198"/>
<circle class="st5" cx="200" cy="200" r="70"/>
<circle class="st4" cx="200" cy="201.4" r="10"/>
<g>
	<path class="st3" d="M191.9,160.1h-2.2L184,167l1.1,2.1h4.2v2.3h2.6v-2.3h1.8v-2.2h-1.8V160.1z M187.1,166.8l2.2-2.7v2.7H187.1z"/>
	<path class="st3" d="M202.3,160.7c-0.7-0.5-1.6-0.7-2.6-0.7c-1,0-1.9,0.2-2.6,0.7c-0.7,0.5-1.2,1.1-1.6,2c-0.4,0.9-0.6,1.9-0.6,3.1
		s0.2,2.2,0.6,3.1c0.4,0.9,0.9,1.5,1.6,2c0.7,0.5,1.6,0.7,2.6,0.7c1,0,1.9-0.2,2.6-0.7c0.7-0.5,1.3-1.1,1.6-2
		c0.4-0.9,0.6-1.9,0.6-3.1s-0.2-2.2-0.6-3.1C203.5,161.8,203,161.1,202.3,160.7z M201.3,168.3c-0.4,0.6-0.9,0.9-1.6,0.9
		c-0.7,0-1.2-0.3-1.6-0.9c-0.4-0.6-0.6-1.5-0.6-2.6c0-1.1,0.2-2,0.6-2.6c0.4-0.6,0.9-0.9,1.6-0.9c0.7,0,1.2,0.3,1.6,0.9
		c0.4,0.6,0.6,1.5,0.6,2.6C201.9,166.9,201.7,167.7,201.3,168.3z"/>
	<path class="st3" d="M215.1,166.8h-1.8v-6.8h-2.2l-5.7,6.9l1.1,2.1h4.2v2.3h2.6v-2.3h1.8V166.8z M208.5,166.8l2.2-2.7v2.7H208.5z"
		/>
</g>
<g>
	<path class="st3" d="M214,231.5h-4.2v-2.3h-2.6v2.3h-1.8v2.2h1.8v6.8h2.2l5.7-6.9L214,231.5z M212,233.7l-2.2,2.7v-2.7H212z"/>
	<path class="st3" d="M202,229.7c-0.7-0.5-1.6-0.7-2.6-0.7s-1.9,0.2-2.6,0.7c-0.7,0.5-1.3,1.1-1.6,2c-0.4,0.9-0.6,1.9-0.6,3.1
		s0.2,2.2,0.6,3.1c0.4,0.9,0.9,1.5,1.6,2c0.7,0.5,1.6,0.7,2.6,0.7s1.9-0.2,2.6-0.7c0.7-0.5,1.2-1.1,1.6-2c0.4-0.9,0.6-1.9,0.6-3.1
		s-0.2-2.2-0.6-3.1C203.3,230.8,202.7,230.1,202,229.7z M201.1,237.4c-0.4,0.6-0.9,0.9-1.6,0.9s-1.2-0.3-1.6-0.9
		c-0.4-0.6-0.6-1.5-0.6-2.6c0-1.1,0.2-2,0.6-2.6c0.4-0.6,0.9-0.9,1.6-0.9s1.2,0.3,1.6,0.9c0.4,0.6,0.6,1.5,0.6,2.6
		C201.6,235.9,201.4,236.8,201.1,237.4z"/>
	<path class="st3" d="M188.4,231.5v-2.3h-2.6v2.3H184v2.2h1.8v6.8h2.2l5.7-6.9l-1.1-2.1H188.4z M190.6,233.7l-2.2,2.7v-2.7H190.6z"
		/>
</g>
</svg>
