<svg width="65" height="30" viewBox="0 0 65 30" fill="none" xmlns="http://www.w3.org/2000/svg">
<path d="M28.8654 1.67448C24.4261 1.67448 18.9692 2.31304 14.5774 2.94278C12.5755 3.22983 10.5049 3.20393 8.5557 3.84941C6.77261 4.43988 5.35339 6.15604 4.03943 7.47593C2.35311 9.16986 1.02858 11.6958 1.02858 14.2109C1.02858 15.2775 0.861521 16.4563 1.33524 17.4345C2.84148 20.5446 6.40803 22.8908 9.36417 24.3133C17.6713 28.3108 26.4344 29.4561 35.5279 28.8465C40.0847 28.541 44.5256 27.261 48.9513 26.1266C53.0624 25.0728 57.3883 23.9999 60.7438 21.2049C62.5806 19.6749 64.1282 17.785 63.9916 15.247C63.7973 11.6364 60.0294 9.25154 57.2032 7.89327C52.2431 5.50938 46.4831 4.54317 41.1454 3.59037C35.3012 2.54717 29.4925 1.71449 23.61 1" stroke="#EE2E39" stroke-width="2" stroke-linecap="round"/>
</svg>
